<svg xmlns="http://www.w3.org/2000/svg" width="30" height="30" viewBox="0 0 30 30">
  <g id="icn_faq" transform="translate(-998 -31)">
    <rect id="Rectangle_87" data-name="Rectangle 87" width="30" height="30" transform="translate(998 31)" fill="#fff" opacity="0"/>
    <g id="Union_1" data-name="Union 1" transform="translate(6078 35)" fill="none">
      <path d="M-5061.246,19H-5075a3,3,0,0,1-3-3V3a3,3,0,0,1,3-3h20.2a3,3,0,0,1,3,3V16a3,3,0,0,1-3,3h-1.443l1.034,5.545Z" stroke="none"/>
      <path d="M -5056.74169921875 21.77920913696289 L -5057.4462890625 18.00017929077148 L -5054.79931640625 18.00017929077148 C -5053.6962890625 18.00017929077148 -5052.79931640625 17.10299873352051 -5052.79931640625 16.00021934509277 L -5052.79931640625 2.999958753585815 C -5052.79931640625 1.897178649902344 -5053.6962890625 0.9999986886978149 -5054.79931640625 0.9999986886978149 L -5075 0.9999986886978149 C -5076.10302734375 0.9999986886978149 -5077 1.897178649902344 -5077 2.999958753585815 L -5077 16.00021934509277 C -5077 17.10299873352051 -5076.10302734375 18.00017929077148 -5075 18.00017929077148 L -5060.85595703125 18.00017929077148 L -5060.5693359375 18.2636890411377 L -5056.74169921875 21.77920913696289 M -5055.20849609375 24.54513931274414 L -5061.24560546875 19.00017929077148 L -5075 19.00017929077148 C -5076.65673828125 19.00017929077148 -5078 17.65694808959961 -5078 16.00021934509277 L -5078 2.999958753585815 C -5078 1.343228697776794 -5076.65673828125 -1.297302219427365e-06 -5075 -1.297302219427365e-06 L -5054.79931640625 -1.297302219427365e-06 C -5053.142578125 -1.297302219427365e-06 -5051.79931640625 1.343228697776794 -5051.79931640625 2.999958753585815 L -5051.79931640625 16.00021934509277 C -5051.79931640625 17.65694808959961 -5053.142578125 19.00017929077148 -5054.79931640625 19.00017929077148 L -5056.24267578125 19.00017929077148 L -5055.20849609375 24.54513931274414 Z" stroke="none" fill="#314153"/>
    </g>
    <text id="FAQ" transform="translate(1013 48)" fill="#314153" font-size="10.5" font-family="Roboto-Medium, Roboto" font-weight="500"><tspan x="-9.457" y="0" letter-spacing="0.05em">F</tspan><tspan y="0" letter-spacing="-0.05em">A</tspan><tspan y="0">Q</tspan></text>
  </g>
</svg>
