<svg xmlns="http://www.w3.org/2000/svg" width="16.059" height="15.739" viewBox="0 0 16.059 15.739">
  <g id="icn_magnifier" transform="translate(0.5 0.5)">
    <g id="Icon-Search">
      <path id="Fill-1" d="M-15.715-209.73a6.093,6.093,0,0,1-6.085-6.085,6.093,6.093,0,0,1,6.085-6.085,6.073,6.073,0,0,1,6.085,6.085,6.113,6.113,0,0,1-6.085,6.085Zm0-11.265a5.22,5.22,0,0,0-5.211,5.211,5.22,5.22,0,0,0,5.211,5.211,5.22,5.22,0,0,0,5.211-5.211A5.261,5.261,0,0,0-15.715-221Z" transform="translate(21.8 221.9)" fill="#314153" stroke="#314052" stroke-width="1"/>
      <path id="Fill-2" d="M14.344-185,10.1-189.213l.686-.687L15-185.656l-.655.655" transform="translate(-0.146 199.885)" fill="#314153" stroke="#314052" stroke-width="1"/>
    </g>
  </g>
</svg>
