<svg xmlns="http://www.w3.org/2000/svg" width="28.958" height="19" viewBox="0 0 28.958 19">
  <g id="icn_tollfree" transform="translate(0 -88.032)" opacity="0.526">
    <path id="Path_1467" data-name="Path 1467" d="M0,88.032V91.08a16.653,16.653,0,0,1,6.229,1.2q.514.209,1,.448A15.517,15.517,0,0,1,9.584,91.8a16.882,16.882,0,0,1,4.9-.717,16.66,16.66,0,0,1,6.256,1.2q.514.209,1,.448a15.529,15.529,0,0,1,2.358-.929,16.891,16.891,0,0,1,4.869-.717V88.032Z" fill="#314153"/>
    <path id="Path_1468" data-name="Path 1468" d="M320.59,210.661a3.7,3.7,0,0,0,5.773,3.071A3.7,3.7,0,0,0,328,210.661a3.16,3.16,0,0,0-.238-1.164,5.133,5.133,0,0,0-.737-1.256,9.363,9.363,0,0,0-2.729-2.275,10.069,10.069,0,0,0-2.241,1.713,5.564,5.564,0,0,0-1.275,1.952A3.092,3.092,0,0,0,320.59,210.661Z" transform="translate(-302.77 -111.409)" fill="#314153"/>
    <path id="Path_1469" data-name="Path 1469" d="M25.255,175.6a7.182,7.182,0,0,1,1.654,2.545,4.783,4.783,0,0,1,.288,1.606,5.352,5.352,0,0,1-.934,3.026,5.487,5.487,0,0,1-9.568-.919,5.35,5.35,0,0,1-.43-2.107,5.094,5.094,0,0,1,.627-2.373,8.081,8.081,0,0,1,1.651-2.107,11.343,11.343,0,0,1,1.183-.959c-.286-.1-.579-.2-.88-.289a15.627,15.627,0,0,0-4.368-.614,15.407,15.407,0,0,0-5.249.9,10.92,10.92,0,0,1,1.52,1.288,7.187,7.187,0,0,1,1.654,2.545,4.778,4.778,0,0,1,.288,1.606,5.354,5.354,0,0,1-.934,3.026,5.487,5.487,0,0,1-9.568-.919,5.349,5.349,0,0,1-.43-2.107,5.1,5.1,0,0,1,.626-2.373,8.083,8.083,0,0,1,1.651-2.107,11.312,11.312,0,0,1,1.183-.959c-.286-.1-.579-.2-.88-.289A15.633,15.633,0,0,0,0,173.409v14.032H28.958V173.409a15.41,15.41,0,0,0-5.222.9A10.914,10.914,0,0,1,25.255,175.6Z" transform="translate(0 -80.409)" fill="#314153"/>
    <path id="Path_1470" data-name="Path 1470" d="M64.118,210.661a3.7,3.7,0,0,0,5.773,3.071,3.7,3.7,0,0,0,1.634-3.071,3.169,3.169,0,0,0-.238-1.164,5.148,5.148,0,0,0-.737-1.256,9.372,9.372,0,0,0-2.729-2.275,10.06,10.06,0,0,0-2.241,1.713,5.565,5.565,0,0,0-1.275,1.952A3.089,3.089,0,0,0,64.118,210.661Z" transform="translate(-60.387 -111.409)" fill="#314153"/>
  </g>
</svg>
