<svg xmlns="http://www.w3.org/2000/svg" width="30" height="30" viewBox="0 0 30 30">
  <g id="icn_login" transform="translate(-1151 -218.865)">
    <rect id="Rectangle_85" data-name="Rectangle 85" width="30" height="30" transform="translate(1151 218.865)" fill="#fff" opacity="0"/>
    <g id="Layer_1" transform="translate(1151.614 219.745)">
      <path id="Path_1466" data-name="Path 1466" d="M14.25,1A13.243,13.243,0,0,0,5.417,24.115v.009l.192.166c.034.029.071.054.1.082q.357.3.735.578c.068.05.136.1.2.146q.4.282.821.534c.047.028.095.055.142.082.308.179.622.347.944.5l.01,0a13.16,13.16,0,0,0,2.161.8l.041.012q.531.145,1.079.245l.1.018c.352.062.709.111,1.07.145l.124.009c.364.03.73.05,1.1.05s.738-.019,1.1-.05l.124-.009c.362-.033.718-.083,1.07-.145l.1-.018q.547-.1,1.079-.245l.041-.012a13.161,13.161,0,0,0,2.161-.8l.01,0c.322-.154.637-.323.944-.5.047-.028.095-.054.142-.082.281-.168.554-.347.821-.534.068-.048.137-.1.2-.146q.378-.277.735-.578c.034-.029.071-.053.1-.082l.192-.166v-.009A13.243,13.243,0,0,0,14.25,1Zm0,13.25a4.417,4.417,0,1,1,4.417-4.417A4.422,4.422,0,0,1,14.25,14.25Zm1.656,1.1a6.08,6.08,0,0,1,6.073,6.073v2.185l-.071.056q-.327.266-.67.507c-.051.036-.1.073-.151.108-.247.168-.5.326-.758.476l-.142.082c-.271.152-.546.294-.827.425l-.089.04a12.153,12.153,0,0,1-2.877.9l-.094.017q-.47.08-.947.124l-.132.01c-.322.025-.645.041-.971.041s-.649-.017-.971-.043l-.132-.01q-.477-.044-.947-.124l-.094-.017a12.153,12.153,0,0,1-2.877-.9l-.089-.04c-.281-.13-.556-.273-.827-.425l-.142-.082c-.258-.149-.511-.308-.758-.476-.051-.035-.1-.072-.151-.108-.229-.161-.452-.329-.67-.507l-.071-.056V21.427a6.08,6.08,0,0,1,6.073-6.073Zm7.177,7.219V21.427A7.19,7.19,0,0,0,17.353,14.4a5.521,5.521,0,1,0-6.205,0,7.19,7.19,0,0,0-5.731,7.031v1.146a12.146,12.146,0,1,1,17.667,0Z" transform="translate(0 0)" fill="#314153"/>
    </g>
  </g>
</svg>
